<?xml version="1.0" encoding="UTF-8" standalone="no"?>
<svg width="509pt" height="140pt" viewBox="0.00 0.00 509.00 140.00" xmlns="http://www.w3.org/2000/svg" xmlns:xlink="http://www.w3.org/1999/xlink">
<g id="graph1" class="graph" transform="scale(1 1) rotate(0) translate(4 136)">
<title>G</title>
<polygon fill="white" stroke="white" points="-4,5 -4,-136 506,-136 506,5 -4,5"></polygon>
<!-- Seed -->
<g id="node1" class="node"><title>Seed</title>
<ellipse fill="#eeeeff" stroke="black" cx="23" cy="-108" rx="23.25" ry="23.5"></ellipse>
<text text-anchor="middle" x="23" y="-103.8" font-family="Times,serif" font-size="14.00">Seed</text>
</g>
<!-- Cres -->
<g id="node3" class="node"><title>Cres</title>
<ellipse fill="#eeeeff" stroke="black" cx="250" cy="-24" rx="23.25" ry="23.5"></ellipse>
<text text-anchor="middle" x="250" y="-19.8" font-family="Times,serif" font-size="14.00">Cres</text>
</g>
<!-- Seed&#45;&gt;Cres -->
<g id="edge2" class="edge"><title>Seed-&gt;Cres</title>
<path fill="none" stroke="black" d="M40.9576,-92.5302C45.3747,-89.4198 50.2147,-86.362 55,-84 109.008,-57.3423 177.445,-40.0438 217.219,-31.4483"></path>
<polygon fill="black" stroke="black" points="218.102,-34.8393 227.165,-29.352 216.658,-27.9898 218.102,-34.8393"></polygon>
</g>
<!-- Obv -->
<g id="node4" class="node"><title>Obv</title>
<ellipse fill="#eeeeff" stroke="black" cx="88" cy="-108" rx="23.25" ry="23.5"></ellipse>
<text text-anchor="middle" x="88" y="-103.8" font-family="Times,serif" font-size="14.00">Obv</text>
</g>
<!-- Obv&#45;&gt;Cres -->
<g id="edge4" class="edge"><title>Obv-&gt;Cres</title>
<path fill="none" stroke="black" d="M106.199,-92.9813C110.606,-89.8523 115.381,-86.673 120,-84 152.479,-65.2036 192.013,-48.0031 218.895,-37.0856"></path>
<polygon fill="black" stroke="black" points="220.213,-40.3282 228.191,-33.3563 217.607,-33.8316 220.213,-40.3282"></polygon>
</g>
<!-- Herm -->
<g id="node6" class="node"><title>Herm</title>
<ellipse fill="#eeeeff" stroke="black" cx="153" cy="-108" rx="23.25" ry="23.5"></ellipse>
<text text-anchor="middle" x="153" y="-103.8" font-family="Times,serif" font-size="14.00">Herm</text>
</g>
<!-- Herm&#45;&gt;Cres -->
<g id="edge6" class="edge"><title>Herm-&gt;Cres</title>
<path fill="none" stroke="black" d="M170.342,-92.34C185.421,-79.5925 207.469,-60.954 224.548,-46.5157"></path>
<polygon fill="black" stroke="black" points="227.104,-48.9383 232.481,-39.8095 222.585,-43.5925 227.104,-48.9383"></polygon>
</g>
<!-- Annu -->
<g id="node8" class="node"><title>Annu</title>
<ellipse fill="#eeeeff" stroke="black" cx="218" cy="-108" rx="23.25" ry="23.5"></ellipse>
<text text-anchor="middle" x="218" y="-103.8" font-family="Times,serif" font-size="14.00">Annu</text>
</g>
<!-- Annu&#45;&gt;Cres -->
<g id="edge8" class="edge"><title>Annu-&gt;Cres</title>
<path fill="none" stroke="black" d="M226.241,-85.883C229.861,-76.6051 234.181,-65.535 238.139,-55.3943"></path>
<polygon fill="black" stroke="black" points="241.412,-56.6337 241.787,-46.0455 234.891,-54.0888 241.412,-56.6337"></polygon>
</g>
<!-- Div -->
<g id="node10" class="node"><title>Div</title>
<ellipse fill="#eeeeff" stroke="black" cx="283" cy="-108" rx="23.25" ry="23.5"></ellipse>
<text text-anchor="middle" x="283" y="-103.8" font-family="Times,serif" font-size="14.00">Div</text>
</g>
<!-- Div&#45;&gt;Cres -->
<g id="edge10" class="edge"><title>Div-&gt;Cres</title>
<path fill="none" stroke="black" d="M274.502,-85.883C270.768,-76.6051 266.313,-65.535 262.232,-55.3943"></path>
<polygon fill="black" stroke="black" points="265.45,-54.0157 258.47,-46.0455 258.956,-56.6291 265.45,-54.0157"></polygon>
</g>
<!-- Elev -->
<g id="node12" class="node"><title>Elev</title>
<ellipse fill="#eeeeff" stroke="black" cx="348" cy="-108" rx="23.25" ry="23.5"></ellipse>
<text text-anchor="middle" x="348" y="-103.8" font-family="Times,serif" font-size="14.00">Elev</text>
</g>
<!-- Elev&#45;&gt;Cres -->
<g id="edge12" class="edge"><title>Elev-&gt;Cres</title>
<path fill="none" stroke="black" d="M330.48,-92.34C315.245,-79.5925 292.969,-60.954 275.714,-46.5157"></path>
<polygon fill="black" stroke="black" points="277.615,-43.5425 267.699,-39.8095 273.123,-48.9111 277.615,-43.5425"></polygon>
</g>
<!-- Dom -->
<g id="node14" class="node"><title>Dom</title>
<ellipse fill="#eeeeff" stroke="black" cx="413" cy="-108" rx="23.25" ry="23.5"></ellipse>
<text text-anchor="middle" x="413" y="-103.8" font-family="Times,serif" font-size="14.00">Dom</text>
</g>
<!-- Dom&#45;&gt;Cres -->
<g id="edge14" class="edge"><title>Dom-&gt;Cres</title>
<path fill="none" stroke="black" d="M394.539,-93.2525C389.899,-90.0454 384.856,-86.7632 380,-84 347.385,-65.4398 307.876,-48.1961 281.037,-37.2039"></path>
<polygon fill="black" stroke="black" points="282.34,-33.9557 271.758,-33.4461 279.713,-40.4439 282.34,-33.9557"></polygon>
</g>
<!-- nHG -->
<g id="node16" class="node"><title>nHG</title>
<ellipse fill="#eeeeff" stroke="black" cx="478" cy="-108" rx="23.25" ry="23.5"></ellipse>
<text text-anchor="middle" x="478" y="-103.8" font-family="Times,serif" font-size="14.00">nHG</text>
</g>
<!-- nHG&#45;&gt;Cres -->
<g id="edge16" class="edge"><title>nHG-&gt;Cres</title>
<path fill="none" stroke="black" d="M459.783,-92.7891C455.135,-89.596 450.028,-86.4363 445,-84 390.8,-57.7348 322.427,-40.3067 282.716,-31.5803"></path>
<polygon fill="black" stroke="black" points="283.299,-28.1259 272.787,-29.4493 281.83,-34.97 283.299,-28.1259"></polygon>
</g>
</g>
</svg>
